<svg xmlns="http://www.w3.org/2000/svg" xmlns:xlink="http://www.w3.org/1999/xlink" data-background-color="#ffffff" preserveAspectRatio="xMidYMid meet" viewBox="0 0 640 400"><rect width="640" height="400" x="0" y="0" opacity="1" fill="#ffffff" data-fill-palette-color="background" id="background"/><g id="tight-bounds" transform="matrix(1,0,0,1,122.24000000000001,136.25149713889402)"><svg viewBox="0 0 395.52 127.49700572221198" height="127.49700572221198" width="395.52"><g><svg viewBox="0 0 631.6683216928376 203.62009411764703" height="127.49700572221198" width="395.52"><g><rect width="18.27131365519059" height="203.62009411764703" x="443.3506640188235" y="0" fill="#6c7383" opacity="1" stroke-width="0" stroke="transparent" fill-opacity="1" class="rect-r-0" data-fill-palette-color="secondary" rx="1%" id="r-0" data-palette-color="#6c7383"/></g><g transform="matrix(1,0,0,1,0,0.5065176470588142)"><svg viewBox="0 0 395.52 202.6070588235294" height="202.6070588235294" width="395.52"><g id="textblocktransform"><svg viewBox="0 0 395.52 202.6070588235294" height="202.6070588235294" width="395.52" id="textblock"><g><svg viewBox="0 0 395.52 202.6070588235294" height="202.6070588235294" width="395.52"><g transform="matrix(1,0,0,1,0,0)"><svg width="395.52" viewBox="1.75 -31.350000381469727 61.20000076293945 31.350000381469727" height="202.6070588235294" data-palette-color="#4b49ac"><path d="M16.4 0L1.8 0 1.8-2.25 6-3.45 6-27.3 1.75-28.45 1.75-30.7 15.45-30.7Q21.1-30.7 24.58-28.85 28.05-27 29.65-23.68 31.25-20.35 31.25-16L31.25-16Q31.25-11.65 29.75-8 28.25-4.35 24.98-2.18 21.7 0 16.4 0L16.4 0ZM16.65-2.85L16.65-2.85Q19-2.85 20.48-3.93 21.95-5 22.75-6.88 23.55-8.75 23.85-11.1 24.15-13.45 24.15-16L24.15-16Q24.15-19.4 23.1-22.03 22.05-24.65 20.08-26.13 18.1-27.6 15.4-27.6L15.4-27.6Q14.45-27.6 13.83-27.5 13.2-27.4 12.75-27.3L12.75-27.3 12.75-3.45Q13.6-3.2 14.63-3.03 15.65-2.85 16.65-2.85ZM43.25 0L32.25 0 32.25-2.2 35.8-3.45 45.25-30.7 49.15-31.35 59.4-3.45 62.95-2.25 62.95 0 49.05 0 49.05-2.25 52.3-3.25 50.85-7.65 41.25-7.65 39.85-3.4 43.25-2.25 43.25 0ZM45.85-21.15L42.2-10.35 49.85-10.35 45.85-21.15Z" opacity="1" transform="matrix(1,0,0,1,0,0)" fill="#4b49ac" class="wordmark-text-0" data-fill-palette-color="primary" id="text-0"/></svg></g></svg></g></svg></g></svg></g><g transform="matrix(1,0,0,1,509.45264169283763,53.50108109674)"><svg viewBox="0 0 122.21567999999999 96.61793192416702" height="96.61793192416702" width="122.21567999999999"><g><svg xmlns="http://www.w3.org/2000/svg" xmlns:xlink="http://www.w3.org/1999/xlink" version="1.1" x="8" y="0" viewBox="0 0 99.9990005493164 90.96299743652344" enable-background="new 0 0 100 90.963" xml:space="preserve" height="96.61793192416702" width="106.21567999999999" class="icon-icon-0" data-fill-palette-color="accent" id="icon-0"><path d="M8.984 21.367V61.705H2.988A3 3 0 0 1 0 58.711V6.732L3.861 1.589C4.518 0.716 5.951 0 7.044 0H26.868C27.962 0 29.394 0.716 30.052 1.589L33.912 6.732H79.05A2.99 2.99 0 0 1 82.031 9.714V21.367H42.897L39.037 16.224C38.379 15.351 36.947 14.636 35.853 14.636H16.029C14.935 14.636 13.503 15.352 12.845 16.224z" fill="#4b49ac" data-fill-palette-color="accent"/><path d="M97.012 35.99H51.882L48.014 30.86C47.357 29.988 45.924 29.272 44.837 29.272H25.013C23.919 29.272 22.487 29.988 21.829 30.86L17.968 35.99V87.982A2.987 2.987 0 0 0 20.943 90.963H97.011A2.99 2.99 0 0 0 99.999 87.982V38.984A2.99 2.99 0 0 0 97.012 35.99" fill="#4b49ac" data-fill-palette-color="accent"/></svg></g></svg></g></svg></g><defs/></svg><rect width="395.52" height="127.49700572221198" fill="none" stroke="none" visibility="hidden"/></g></svg>