<svg xmlns="http://www.w3.org/2000/svg" xmlns:xlink="http://www.w3.org/1999/xlink" data-background-color="#ffffff" preserveAspectRatio="xMidYMid meet" viewBox="122.25 175.08 388.9 49.85"><g id="tight-bounds" transform="matrix(1,0,0,1,122.24000000000004,175.0768449256493)"><svg viewBox="0 0 395.5199999999999 49.84631014870139" height="49.84631014870139" width="395.5199999999999"><g><svg viewBox="0 0 479.02520037217454 60.37024349412228" height="49.84631014870139" width="395.5199999999999"><g><rect width="3.5078550865647475" height="60.37024349412228" x="404.70286671875584" y="0" fill="#6c7383" opacity="1" stroke-width="0" stroke="transparent" fill-opacity="1" class="rect-r-0" data-fill-palette-color="secondary" rx="1%" id="r-0" data-palette-color="#6c7383"/></g><g transform="matrix(1,0,0,1,0,0.150174735060002)"><svg viewBox="0 0 395.52 60.069894024002274" height="60.069894024002274" width="395.52"><g id="textblocktransform"><svg viewBox="0 0 395.52 60.069894024002274" height="60.069894024002274" width="395.52" id="textblock"><g><svg viewBox="0 0 395.52 38.89792574745372" height="38.89792574745372" width="395.52"><g transform="matrix(1,0,0,1,0,0)"><svg width="395.52" viewBox="1.75 -36.5 456.510009765625 44.900001525878906" height="38.89792574745372" data-palette-color="#4b49ac"><path d="M16.4 0L1.8 0 1.8-2.25 6-3.45 6-27.3 1.75-28.45 1.75-30.7 15.45-30.7Q21.1-30.7 24.58-28.85 28.05-27 29.65-23.68 31.25-20.35 31.25-16L31.25-16Q31.25-11.65 29.75-8 28.25-4.35 24.98-2.18 21.7 0 16.4 0L16.4 0ZM16.65-2.85L16.65-2.85Q19-2.85 20.48-3.93 21.95-5 22.75-6.88 23.55-8.75 23.85-11.1 24.15-13.45 24.15-16L24.15-16Q24.15-19.4 23.1-22.03 22.05-24.65 20.08-26.13 18.1-27.6 15.4-27.6L15.4-27.6Q14.45-27.6 13.83-27.5 13.2-27.4 12.75-27.3L12.75-27.3 12.75-3.45Q13.6-3.2 14.63-3.03 15.65-2.85 16.65-2.85ZM40.4 0.5L40.4 0.5Q38.55 0.5 37.22-0.25 35.9-1 35.2-2.4 34.5-3.8 34.5-5.65L34.5-5.65Q34.5-7 35.05-8.47 35.6-9.95 37-11.18 38.4-12.4 40.9-12.9L40.9-12.9 47.65-14.3 47.65-17.8Q47.65-19.8 46.92-20.55 46.2-21.3 44.45-21.3L44.45-21.3Q43.5-21.3 42.67-21.13 41.85-20.95 41.1-20.7L41.1-20.7 40.1-16.5 36.8-16.5 35.95-23.25Q38.3-24.1 40.92-24.6 43.55-25.1 46.3-25.1L46.3-25.1Q48.8-25.1 50.62-24.58 52.45-24.05 53.42-22.7 54.4-21.35 54.4-18.85L54.4-18.85 54.4-4.15 58.05-2.75 58.05-0.6Q56.3-0.15 55.2 0.05 54.1 0.25 52.8 0.25L52.8 0.25Q51.2 0.25 49.7-0.4 48.2-1.05 47.8-2.4L47.8-2.4Q45.95-1.05 44.25-0.28 42.55 0.5 40.4 0.5ZM43.7-3.55L43.7-3.55Q44.75-3.55 45.87-4 47-4.45 47.65-4.9L47.65-4.9 47.65-11.4 44.65-10.65Q42.65-10.15 41.87-9.08 41.1-8 41.1-6.35L41.1-6.35Q41.1-4.9 41.8-4.23 42.5-3.55 43.7-3.55ZM67.45 0.45L67.45 0.45Q65.55 0.45 64.57-0.13 63.6-0.7 63.3-1.6 63-2.5 63-3.45L63-3.45 63-21 59.4-21 59.4-23.35 63.55-25.2 66.6-30.2 69.65-30.2 69.65-24.6 75.3-24.6 75.3-20.85 69.65-21.05 69.65-4.25 74.6-3.15 74.6-0.65Q73.55-0.3 72.25-0.08 70.95 0.15 69.67 0.3 68.4 0.45 67.45 0.45ZM83.74 0.5L83.74 0.5Q81.89 0.5 80.57-0.25 79.24-1 78.54-2.4 77.84-3.8 77.84-5.65L77.84-5.65Q77.84-7 78.39-8.47 78.94-9.95 80.34-11.18 81.74-12.4 84.24-12.9L84.24-12.9 90.99-14.3 90.99-17.8Q90.99-19.8 90.27-20.55 89.54-21.3 87.79-21.3L87.79-21.3Q86.84-21.3 86.02-21.13 85.19-20.95 84.44-20.7L84.44-20.7 83.44-16.5 80.14-16.5 79.29-23.25Q81.64-24.1 84.27-24.6 86.89-25.1 89.64-25.1L89.64-25.1Q92.14-25.1 93.97-24.58 95.79-24.05 96.77-22.7 97.74-21.35 97.74-18.85L97.74-18.85 97.74-4.15 101.39-2.75 101.39-0.6Q99.64-0.15 98.54 0.05 97.44 0.25 96.14 0.25L96.14 0.25Q94.54 0.25 93.04-0.4 91.54-1.05 91.14-2.4L91.14-2.4Q89.29-1.05 87.59-0.28 85.89 0.5 83.74 0.5ZM87.04-3.55L87.04-3.55Q88.09-3.55 89.22-4 90.34-4.45 90.99-4.9L90.99-4.9 90.99-11.4 87.99-10.65Q85.99-10.15 85.22-9.08 84.44-8 84.44-6.35L84.44-6.35Q84.44-4.9 85.14-4.23 85.84-3.55 87.04-3.55ZM121.04 0L110.04 0 110.04-2.2 113.59-3.45 123.04-30.7 126.94-31.35 137.19-3.45 140.74-2.25 140.74 0 126.84 0 126.84-2.25 130.09-3.25 128.64-7.65 119.04-7.65 117.64-3.4 121.04-2.25 121.04 0ZM123.64-21.15L119.99-10.35 127.64-10.35 123.64-21.15ZM154.14 0L140.49 0 140.49-2.25 144.39-3.5 144.39-20.25 140.49-20.75 140.49-23.25 148.94-25.1 151.14-25.1 151.14-23.1Q151.79-23.4 153.29-23.88 154.79-24.35 156.59-24.73 158.39-25.1 159.94-25.1L159.94-25.1Q161.59-25.1 162.99-24.6 164.39-24.1 165.26-22.98 166.14-21.85 166.14-19.9L166.14-19.9 166.14-3.5 170.09-2.25 170.09 0 156.39 0 156.39-2.25 159.39-3.5 159.39-18.2Q159.39-20.05 158.69-20.55 157.99-21.05 155.94-21.05L155.94-21.05Q154.29-21.05 153.19-20.88 152.09-20.7 151.14-20.45L151.14-20.45 151.14-3.5 154.14-2.25 154.14 0ZM184.23 0.5L184.23 0.5Q179.88 0.5 177.18-1.25 174.48-3 173.23-5.88 171.98-8.75 171.98-12.2L171.98-12.2Q171.98-15.8 173.21-18.73 174.43-21.65 177.13-23.38 179.83-25.1 184.23-25.1L184.23-25.1Q188.78-25.1 191.51-23.38 194.23-21.65 195.46-18.73 196.68-15.8 196.68-12.2L196.68-12.2Q196.68-8.75 195.43-5.88 194.18-3 191.46-1.25 188.73 0.5 184.23 0.5ZM184.43-2.9L184.43-2.9Q186.53-2.9 187.61-4.15 188.68-5.4 189.06-7.53 189.43-9.65 189.43-12.3L189.43-12.3Q189.43-15 189.01-17.13 188.58-19.25 187.43-20.48 186.28-21.7 184.13-21.7L184.13-21.7Q182.13-21.7 181.08-20.48 180.03-19.25 179.63-17.13 179.23-15 179.23-12.3L179.23-12.3Q179.23-9.65 179.66-7.53 180.08-5.4 181.21-4.15 182.33-2.9 184.43-2.9ZM212.83 0L199.18 0 199.18-2.25 203.08-3.5 203.08-20.25 199.18-20.75 199.18-23.25 207.63-25.1 209.83-25.1 209.83-23.1Q210.48-23.4 211.98-23.88 213.48-24.35 215.28-24.73 217.08-25.1 218.63-25.1L218.63-25.1Q220.28-25.1 221.68-24.6 223.08-24.1 223.96-22.98 224.83-21.85 224.83-19.9L224.83-19.9 224.83-3.5 228.78-2.25 228.78 0 215.08 0 215.08-2.25 218.08-3.5 218.08-18.2Q218.08-20.05 217.38-20.55 216.68-21.05 214.63-21.05L214.63-21.05Q212.98-21.05 211.88-20.88 210.78-20.7 209.83-20.45L209.83-20.45 209.83-3.5 212.83-2.25 212.83 0ZM235.13 8.4L235.13 8.4Q233.98 8.4 232.45 8.05 230.93 7.7 229.23 6.95L229.23 6.95 229.63 4.65 232.88 4.65Q234.68 4.65 235.95 3.78 237.23 2.9 238.1 1.53 238.98 0.15 239.53-1.3L239.53-1.3 230.98-21.25 228.48-22.6 228.48-24.6 240.48-24.6 240.48-22.6 238.13-21.25 242.93-8.7 247.13-21.15 243.93-21.85 243.93-24.6 254.78-24.6 254.78-22 251.63-21.15 244.53-1.7Q242.83 3 240.68 5.7 238.53 8.4 235.13 8.4ZM268.98 0L255.33 0 255.33-2.25 259.23-3.5 259.23-20.25 255.33-20.75 255.33-23.25 263.78-25.1 265.98-25.1 265.98-23.1Q266.83-23.5 268.3-23.98 269.78-24.45 271.45-24.78 273.13-25.1 274.48-25.1L274.48-25.1Q276.08-25.1 277.55-24.6 279.03-24.1 279.93-22.8L279.93-22.8Q280.93-23.2 282.53-23.75 284.13-24.3 285.88-24.7 287.63-25.1 289.08-25.1L289.08-25.1Q290.68-25.1 292.1-24.63 293.53-24.15 294.45-23.03 295.38-21.9 295.38-19.9L295.38-19.9 295.38-3.5 299.33-2.25 299.33 0 285.63 0 285.63-2.25 288.63-3.5 288.63-18.2Q288.63-19.95 287.98-20.5 287.33-21.05 285.43-21.05L285.43-21.05Q283.83-21.05 282.63-20.88 281.43-20.7 280.68-20.45L280.68-20.45Q280.68-20.25 280.68-20.05 280.68-19.85 280.68-19.6L280.68-19.6 280.68-3.5 283.68-2.25 283.68 0 270.93 0 270.93-2.25 273.93-3.5 273.93-18.2Q273.93-19.95 273.3-20.5 272.68-21.05 270.53-21.05L270.53-21.05Q269.08-21.05 267.9-20.88 266.73-20.7 265.98-20.45L265.98-20.45 265.98-3.5 268.98-2.25 268.98 0ZM315.77 0L301.22 0 301.22-2.5 305.12-3.5 305.12-20.2 301.22-20.75 301.22-23.15 309.67-25.1 311.87-25.1 311.87-3.5 315.77-2.5 315.77 0ZM308.22-28.3L308.22-28.3Q306.37-28.3 305.2-29.45 304.02-30.6 304.02-32.4L304.02-32.4Q304.02-34.2 305.2-35.35 306.37-36.5 308.22-36.5L308.22-36.5Q310.07-36.5 311.25-35.35 312.42-34.2 312.42-32.4L312.42-32.4Q312.42-30.6 311.25-29.45 310.07-28.3 308.22-28.3ZM338.57 0L319.12 0 318.02-2.3 330.82-20.95 322.97-20.95 321.72-16.5 319.37-16.5 318.47-24.6 338.07-24.6 339.22-22.25 326.37-3.55 334.82-3.55 336.62-8.15 339.12-8.15 338.57 0ZM348.07 0.5L348.07 0.5Q346.22 0.5 344.89-0.25 343.57-1 342.87-2.4 342.17-3.8 342.17-5.65L342.17-5.65Q342.17-7 342.72-8.47 343.27-9.95 344.67-11.18 346.07-12.4 348.57-12.9L348.57-12.9 355.32-14.3 355.32-17.8Q355.32-19.8 354.59-20.55 353.87-21.3 352.12-21.3L352.12-21.3Q351.17-21.3 350.34-21.13 349.52-20.95 348.77-20.7L348.77-20.7 347.77-16.5 344.47-16.5 343.62-23.25Q345.97-24.1 348.59-24.6 351.22-25.1 353.97-25.1L353.97-25.1Q356.47-25.1 358.29-24.58 360.12-24.05 361.09-22.7 362.07-21.35 362.07-18.85L362.07-18.85 362.07-4.15 365.72-2.75 365.72-0.6Q363.97-0.15 362.87 0.05 361.77 0.25 360.47 0.25L360.47 0.25Q358.87 0.25 357.37-0.4 355.87-1.05 355.47-2.4L355.47-2.4Q353.62-1.05 351.92-0.28 350.22 0.5 348.07 0.5ZM351.37-3.55L351.37-3.55Q352.42-3.55 353.54-4 354.67-4.45 355.32-4.9L355.32-4.9 355.32-11.4 352.32-10.65Q350.32-10.15 349.54-9.08 348.77-8 348.77-6.35L348.77-6.35Q348.77-4.9 349.47-4.23 350.17-3.55 351.37-3.55ZM375.12 0.45L375.12 0.45Q373.22 0.45 372.24-0.13 371.26-0.7 370.97-1.6 370.67-2.5 370.67-3.45L370.67-3.45 370.67-21 367.06-21 367.06-23.35 371.22-25.2 374.26-30.2 377.31-30.2 377.31-24.6 382.97-24.6 382.97-20.85 377.31-21.05 377.31-4.25 382.26-3.15 382.26-0.65Q381.22-0.3 379.92-0.08 378.62 0.15 377.34 0.3 376.06 0.45 375.12 0.45ZM399.56 0L385.01 0 385.01-2.5 388.91-3.5 388.91-20.2 385.01-20.75 385.01-23.15 393.46-25.1 395.66-25.1 395.66-3.5 399.56-2.5 399.56 0ZM392.01-28.3L392.01-28.3Q390.16-28.3 388.99-29.45 387.81-30.6 387.81-32.4L387.81-32.4Q387.81-34.2 388.99-35.35 390.16-36.5 392.01-36.5L392.01-36.5Q393.86-36.5 395.04-35.35 396.21-34.2 396.21-32.4L396.21-32.4Q396.21-30.6 395.04-29.45 393.86-28.3 392.01-28.3ZM413.71 0.5L413.71 0.5Q409.36 0.5 406.66-1.25 403.96-3 402.71-5.88 401.46-8.75 401.46-12.2L401.46-12.2Q401.46-15.8 402.69-18.73 403.91-21.65 406.61-23.38 409.31-25.1 413.71-25.1L413.71-25.1Q418.26-25.1 420.98-23.38 423.71-21.65 424.94-18.73 426.16-15.8 426.16-12.2L426.16-12.2Q426.16-8.75 424.91-5.88 423.66-3 420.94-1.25 418.21 0.5 413.71 0.5ZM413.91-2.9L413.91-2.9Q416.01-2.9 417.08-4.15 418.16-5.4 418.53-7.53 418.91-9.65 418.91-12.3L418.91-12.3Q418.91-15 418.48-17.13 418.06-19.25 416.91-20.48 415.76-21.7 413.61-21.7L413.61-21.7Q411.61-21.7 410.56-20.48 409.51-19.25 409.11-17.13 408.71-15 408.71-12.3L408.71-12.3Q408.71-9.65 409.13-7.53 409.56-5.4 410.69-4.15 411.81-2.9 413.91-2.9ZM442.31 0L428.66 0 428.66-2.25 432.56-3.5 432.56-20.25 428.66-20.75 428.66-23.25 437.11-25.1 439.31-25.1 439.31-23.1Q439.96-23.4 441.46-23.88 442.96-24.35 444.76-24.73 446.56-25.1 448.11-25.1L448.11-25.1Q449.76-25.1 451.16-24.6 452.56-24.1 453.43-22.98 454.31-21.85 454.31-19.9L454.31-19.9 454.31-3.5 458.26-2.25 458.26 0 444.56 0 444.56-2.25 447.56-3.5 447.56-18.2Q447.56-20.05 446.86-20.55 446.16-21.05 444.11-21.05L444.11-21.05Q442.46-21.05 441.36-20.88 440.26-20.7 439.31-20.45L439.31-20.45 439.31-3.5 442.31-2.25 442.31 0Z" opacity="1" transform="matrix(1,0,0,1,0,0)" fill="#4b49ac" class="wordmark-text-0" data-fill-palette-color="primary" id="text-0"/></svg></g></svg></g><g transform="matrix(1,0,0,1,75.54432,48.0807924662096)"><svg viewBox="0 0 244.43135999999998 11.989101557792672" height="11.989101557792672" width="244.43135999999998"><g transform="matrix(1,0,0,1,0,0)"><svg width="244.43135999999998" viewBox="0.6100000143051147 -35.619998931884766 986.9299926757812 48.40999984741211" height="11.989101557792672" data-palette-color="#6c7383"><path d="M0.61-32.5L0.61-32.5Q0.61-33.5 1.33-34.22 2.05-34.94 3.05-34.94L3.05-34.94 3.08-34.94 27.47-35.08 27.51-35.08Q28.52-35.08 29.24-34.36 29.96-33.64 29.96-32.64L29.96-32.64Q29.96-31.64 29.24-30.92 28.52-30.2 27.51-30.2L27.51-30.2 27.49-30.2 17.77-30.15 17.65-2.12 17.65-2.1Q17.65-1.12 16.93-0.42 16.21 0.29 15.21 0.29L15.21 0.29Q14.21 0.29 13.49-0.42 12.77-1.12 12.77-2.1L12.77-2.1 12.77-2.15 12.89-30.13 3.08-30.05 3.05-30.05Q2.05-30.05 1.33-30.77 0.61-31.49 0.61-32.5ZM43.53-26.66L43.53-26.66Q46.77-26.66 49.48-25.05 52.19-23.44 53.84-20.72 55.49-17.99 55.49-14.67L55.49-14.67Q55.49-13.99 55.42-13.28L55.42-13.28Q55.32-12.38 54.6-11.76 53.88-11.13 52.98-11.13L52.98-11.13 35.91-11.11Q36.33-9.35 37.47-7.81 38.62-6.27 40.27-5.32 41.92-4.37 43.87-4.37L43.87-4.37Q45.97-4.37 47.63-5.4 49.29-6.42 50.22-7.76L50.22-7.76Q50.51-8.23 51.11-8.54 51.71-8.86 52.24-8.86L52.24-8.86Q53.24-8.86 53.96-8.13 54.69-7.4 54.69-6.4L54.69-6.4Q54.69-5.62 54.25-5L54.25-5Q52.73-2.78 50.08-1.16 47.43 0.46 43.94 0.46L43.94 0.46Q41.14 0.46 38.73-0.63 36.33-1.73 34.54-3.64 32.76-5.54 31.77-8.02 30.78-10.5 30.78-13.26L30.78-13.26Q30.78-15.92 31.76-18.32 32.74-20.73 34.48-22.61 36.23-24.49 38.55-25.57 40.87-26.66 43.53-26.66ZM36.08-15.99L50.46-16.02Q50-18.41 48.07-20.09 46.14-21.78 43.53-21.78L43.53-21.78Q40.87-21.78 38.83-20.04 36.79-18.31 36.08-15.99L36.08-15.99ZM58.39-13.16L58.39-13.16Q58.39-15.87 59.35-18.31 60.3-20.75 62.03-22.66 63.76-24.56 66.07-25.66 68.38-26.76 71.09-26.76L71.09-26.76Q73.77-26.76 75.96-25.72 78.14-24.68 79.72-22.99 81.29-21.29 82.08-19.29L82.08-19.29Q82.25-18.87 82.25-18.36L82.25-18.36Q82.25-17.36 81.53-16.64 80.81-15.92 79.8-15.92L79.8-15.92Q79.12-15.92 78.46-16.38 77.8-16.85 77.53-17.5L77.53-17.5Q76.85-19.26 75.15-20.57 73.46-21.88 71.09-21.88L71.09-21.88Q68.87-21.88 67.1-20.64 65.33-19.41 64.3-17.43 63.28-15.45 63.28-13.16L63.28-13.16Q63.28-10.84 64.33-8.8 65.38-6.76 67.21-5.51 69.04-4.25 71.33-4.25L71.33-4.25Q73.58-4.25 75.21-5.38 76.85-6.52 77.68-8.03L77.68-8.03Q77.97-8.57 78.61-8.95 79.24-9.33 79.85-9.33L79.85-9.33Q80.85-9.33 81.57-8.61 82.29-7.89 82.29-6.88L82.29-6.88Q82.29-6.27 81.98-5.69L81.98-5.69Q80.59-3.13 77.83-1.25 75.07 0.63 71.33 0.63L71.33 0.63Q68.55 0.63 66.19-0.48 63.84-1.59 62.09-3.52 60.35-5.44 59.37-7.92 58.39-10.4 58.39-13.16ZM86.05-1.78L86.05-33.25Q86.05-34.23 86.76-34.92 87.47-35.62 88.49-35.62L88.49-35.62Q89.49-35.62 90.21-34.92 90.93-34.23 90.93-33.25L90.93-33.25 90.93-22.61Q91.86-24.58 93.64-25.65 95.43-26.71 97.09-26.71L97.09-26.71Q100.92-26.71 103.35-25.15 105.78-23.58 106.93-20.8 108.07-18.02 108.07-14.38L108.07-14.38 108.07-14.16 108.05-1.83 108.05-1.81Q108.05-0.83 107.33-0.13 106.61 0.56 105.61 0.56L105.61 0.56Q104.61 0.56 103.89-0.13 103.17-0.83 103.17-1.81L103.17-1.81 103.17-1.83 103.19-14.04 103.19-14.09Q103.19-17.85 101.95-19.82 100.7-21.8 97.09-21.8L97.09-21.8Q94.04-21.8 92.51-19.68 90.98-17.55 90.98-14.21L90.98-14.21 90.98-1.78Q90.98-0.81 90.26-0.11 89.54 0.59 88.54 0.59L88.54 0.59Q87.49 0.59 86.77-0.13 86.05-0.85 86.05-1.78L86.05-1.78ZM117.18-24.34L117.59-22.88Q118.91-24.17 120.75-25.44 122.6-26.71 125.04-26.71L125.04-26.71Q128.24-26.71 130.36-25.01 132.49-23.32 133.49-21.07L133.49-21.07Q134.27-19.29 134.43-17.54 134.58-15.8 134.58-14.26L134.58-14.26 134.58-1.93Q134.58-0.93 133.86-0.21 133.14 0.51 132.14 0.51L132.14 0.51Q131.14 0.51 130.42-0.21 129.7-0.93 129.7-1.93L129.7-1.93 129.7-14.26Q129.7-15.7 129.57-16.92 129.43-18.14 129.02-19.07L129.02-19.07Q128.55-20.14 127.58-20.98 126.6-21.83 125.09-21.83L125.09-21.83Q121.47-21.83 119.53-19.07 117.59-16.31 117.62-11.62L117.62-11.62 117.64-1.88Q117.64-0.88 116.92-0.16 116.2 0.56 115.2 0.56L115.2 0.56Q114.17 0.56 113.47-0.16 112.76-0.88 112.76-1.9L112.76-1.9 112.71-24.34Q112.71-25.34 113.26-26.06 113.81-26.78 114.81-26.78L114.81-26.78Q115.81-26.78 116.35-26.06 116.88-25.34 117.18-24.34L117.18-24.34ZM141.86-29.25L141.86-29.25Q140.73-29.25 140.03-29.94 139.32-30.64 139.29-31.67L139.29-31.67 139.25-33.52Q139.25-34.45 140.08-35.02 140.91-35.6 141.66-35.6L141.66-35.6Q142.69-35.6 143.38-34.89 144.08-34.18 144.1-33.18L144.1-33.18 144.13-31.71Q144.13-30.76 143.49-30 142.86-29.25 141.86-29.25ZM139.27-1.81L139.22-24.63Q139.22-25.56 140-26.15 140.78-26.73 141.52-26.73L141.52-26.73Q142.59-26.73 143.35-26.1 144.1-25.46 144.1-24.41L144.1-24.41 144.1-24.39 144.15-1.78Q144.15-0.81 143.43-0.12 142.71 0.56 141.71 0.56L141.71 0.56Q140.69 0.56 139.98-0.13 139.27-0.83 139.27-1.81L139.27-1.81ZM147.93-13.16L147.93-13.16Q147.93-15.87 148.89-18.31 149.84-20.75 151.57-22.66 153.31-24.56 155.61-25.66 157.92-26.76 160.63-26.76L160.63-26.76Q163.32-26.76 165.5-25.72 167.69-24.68 169.26-22.99 170.83-21.29 171.62-19.29L171.62-19.29Q171.79-18.87 171.79-18.36L171.79-18.36Q171.79-17.36 171.07-16.64 170.35-15.92 169.35-15.92L169.35-15.92Q168.66-15.92 168-16.38 167.34-16.85 167.07-17.5L167.07-17.5Q166.39-19.26 164.69-20.57 163-21.88 160.63-21.88L160.63-21.88Q158.41-21.88 156.64-20.64 154.87-19.41 153.84-17.43 152.82-15.45 152.82-13.16L152.82-13.16Q152.82-10.84 153.87-8.8 154.92-6.76 156.75-5.51 158.58-4.25 160.87-4.25L160.87-4.25Q163.12-4.25 164.76-5.38 166.39-6.52 167.22-8.03L167.22-8.03Q167.51-8.57 168.15-8.95 168.78-9.33 169.39-9.33L169.39-9.33Q170.4-9.33 171.12-8.61 171.84-7.89 171.84-6.88L171.84-6.88Q171.84-6.27 171.52-5.69L171.52-5.69Q170.13-3.13 167.37-1.25 164.61 0.63 160.87 0.63L160.87 0.63Q158.09 0.63 155.73-0.48 153.38-1.59 151.63-3.52 149.89-5.44 148.91-7.92 147.93-10.4 147.93-13.16ZM188.48-26.86L188.48-26.86Q190.29-26.86 192.01-26.14 193.73-25.42 195.09-24.33 196.44-23.24 197.1-22.09L197.1-22.09 197.37-24.44Q197.37-25.44 197.96-26.16 198.54-26.88 199.54-26.88L199.54-26.88Q200.54-26.88 201.26-26.16 201.98-25.44 201.98-24.44L201.98-24.44 201.98-24.39 201.94-1.78Q201.94-0.78 201.22-0.06 200.5 0.66 199.49 0.66L199.49 0.66Q198.49 0.66 197.91-0.06 197.32-0.78 197.32-1.78L197.32-1.78 197.05-3.74Q195.78-1.56 193.34-0.5 190.9 0.56 188.43 0.56L188.43 0.56Q185.68 0.56 183.26-0.52 180.84-1.61 179.01-3.52 177.18-5.42 176.14-7.89 175.1-10.35 175.1-13.09L175.1-13.09Q175.1-15.8 176.12-18.27 177.13-20.75 178.95-22.69 180.77-24.63 183.2-25.74 185.63-26.86 188.48-26.86ZM196.91-13.13L196.91-13.13Q196.91-15.53 195.8-17.53 194.68-19.53 192.78-20.75 190.88-21.97 188.43-21.97L188.43-21.97Q186.04-21.97 184.11-20.75 182.18-19.53 181.06-17.52 179.94-15.5 179.94-13.16L179.94-13.16Q179.94-10.79 181.09-8.78 182.23-6.76 184.17-5.54 186.12-4.32 188.46-4.32L188.46-4.32Q190.8-4.32 192.72-5.54 194.64-6.76 195.77-8.78 196.91-10.79 196.91-13.13ZM209.06-35.62L209.06-35.62Q210.23-35.62 210.94-34.85 211.65-34.08 211.63-33.18L211.63-33.18 211.63-1.73Q211.63-0.76 210.86-0.16 210.09 0.44 209.33 0.44L209.33 0.44Q208.28 0.44 207.51-0.24 206.74-0.93 206.74-2L206.74-2 206.74-33.18Q206.74-34.11 207.41-34.86 208.09-35.62 209.06-35.62ZM229.44-32.59L229.44-32.62Q229.44-33.54 230.14-34.28 230.83-35.01 231.76-35.01L231.76-35.01Q232.91-35.01 233.61-34.39 234.3-33.76 234.33-32.62L234.33-32.62 234.5-14.97Q234.55-9.69 236.62-6.64 238.7-3.59 243.51-3.59L243.51-3.59Q247.07-3.59 249.22-4.98 251.37-6.37 252.32-8.86 253.27-11.35 253.27-14.6L253.27-14.6 253.22-32.64 253.22-32.67Q253.22-33.67 253.93-34.36 254.64-35.06 255.64-35.06L255.64-35.06Q256.64-35.06 257.37-34.36 258.1-33.67 258.1-32.67L258.1-32.67 258.1-32.64 258.15-14.6Q258.15-7.28 254.53-3 250.9 1.27 243.6 1.27L243.6 1.27Q238.89 1.27 235.81-0.82 232.74-2.91 231.2-6.56 229.66-10.21 229.61-14.89L229.61-14.89 229.44-32.59ZM266.77-24.34L267.18-22.88Q268.5-24.17 270.35-25.44 272.19-26.71 274.63-26.71L274.63-26.71Q277.83-26.71 279.95-25.01 282.08-23.32 283.08-21.07L283.08-21.07Q283.86-19.29 284.02-17.54 284.18-15.8 284.18-14.26L284.18-14.26 284.18-1.93Q284.18-0.93 283.46-0.21 282.74 0.51 281.74 0.51L281.74 0.51Q280.73 0.51 280.01-0.21 279.29-0.93 279.29-1.93L279.29-1.93 279.29-14.26Q279.29-15.7 279.16-16.92 279.03-18.14 278.61-19.07L278.61-19.07Q278.15-20.14 277.17-20.98 276.19-21.83 274.68-21.83L274.68-21.83Q271.07-21.83 269.13-19.07 267.18-16.31 267.21-11.62L267.21-11.62 267.23-1.88Q267.23-0.88 266.51-0.16 265.79 0.56 264.79 0.56L264.79 0.56Q263.77 0.56 263.06-0.16 262.35-0.88 262.35-1.9L262.35-1.9 262.3-24.34Q262.3-25.34 262.85-26.06 263.4-26.78 264.4-26.78L264.4-26.78Q265.4-26.78 265.94-26.06 266.48-25.34 266.77-24.34L266.77-24.34ZM291.45-29.25L291.45-29.25Q290.33-29.25 289.62-29.94 288.91-30.64 288.89-31.67L288.89-31.67 288.84-33.52Q288.84-34.45 289.67-35.02 290.5-35.6 291.25-35.6L291.25-35.6Q292.28-35.6 292.98-34.89 293.67-34.18 293.7-33.18L293.7-33.18 293.72-31.71Q293.72-30.76 293.09-30 292.45-29.25 291.45-29.25ZM288.86-1.81L288.81-24.63Q288.81-25.56 289.59-26.15 290.38-26.73 291.11-26.73L291.11-26.73Q292.18-26.73 292.94-26.1 293.7-25.46 293.7-24.41L293.7-24.41 293.7-24.39 293.74-1.78Q293.74-0.81 293.02-0.12 292.3 0.56 291.3 0.56L291.3 0.56Q290.28 0.56 289.57-0.13 288.86-0.83 288.86-1.81L288.86-1.81ZM318.77-26.73L318.77-26.73Q319.65-26.73 320.37-26.03 321.09-25.32 321.09-24.46L321.09-24.46Q321.09-23.71 320.84-23.22L320.84-23.22 310.54-0.93Q309.88 0.46 308.29 0.46L308.29 0.46Q306.66 0.46 306.1-1.03L306.1-1.03 296.87-23.32Q296.67-23.73 296.67-24.46L296.67-24.46Q296.67-25.24 297.34-25.99 298.01-26.73 298.84-26.73L298.84-26.73Q300.75-26.73 301.38-25.22L301.38-25.22 308.49-7.93 316.42-25.32Q317.08-26.73 318.77-26.73ZM334.68-26.66L334.68-26.66Q337.93-26.66 340.64-25.05 343.35-23.44 345-20.72 346.64-17.99 346.64-14.67L346.64-14.67Q346.64-13.99 346.57-13.28L346.57-13.28Q346.47-12.38 345.75-11.76 345.03-11.13 344.13-11.13L344.13-11.13 327.06-11.11Q327.48-9.35 328.63-7.81 329.77-6.27 331.42-5.32 333.07-4.37 335.02-4.37L335.02-4.37Q337.12-4.37 338.78-5.4 340.44-6.42 341.37-7.76L341.37-7.76Q341.66-8.23 342.26-8.54 342.86-8.86 343.4-8.86L343.4-8.86Q344.4-8.86 345.12-8.13 345.84-7.4 345.84-6.4L345.84-6.4Q345.84-5.62 345.4-5L345.4-5Q343.89-2.78 341.24-1.16 338.59 0.46 335.1 0.46L335.1 0.46Q332.29 0.46 329.88-0.63 327.48-1.73 325.7-3.64 323.92-5.54 322.93-8.02 321.94-10.5 321.94-13.26L321.94-13.26Q321.94-15.92 322.91-18.32 323.89-20.73 325.64-22.61 327.38-24.49 329.7-25.57 332.02-26.66 334.68-26.66ZM327.24-15.99L341.62-16.02Q341.15-18.41 339.22-20.09 337.29-21.78 334.68-21.78L334.68-21.78Q332.02-21.78 329.98-20.04 327.94-18.31 327.24-15.99L327.24-15.99ZM366.71-23.66L366.71-23.66Q366.71-21.7 364.83-21.48L364.83-21.48Q364.15-21.41 363.1-21.94 362.05-22.46 360.97-22.46L360.97-22.46Q358.85-22.46 357.6-21.37 356.36-20.29 355.82-18.46 355.28-16.63 355.28-14.36L355.28-14.36 355.28-1.76Q355.28-0.68 354.64-0.05 353.99 0.59 352.84 0.59L352.84 0.59Q351.72 0.59 351.06-0.05 350.4-0.68 350.4-1.78L350.4-1.78 350.4-24.27Q350.4-25.37 350.95-26.07 351.5-26.78 352.45-26.78L352.45-26.78Q353.01-26.78 353.76-26.31 354.5-25.83 354.8-24.68L354.8-24.68 355.04-22.92Q355.36-23.61 356.26-24.51 357.16-25.42 358.41-26.09 359.65-26.76 361-26.76L361-26.76Q363.49-26.76 365.1-26.18 366.71-25.61 366.71-23.66ZM382.02-26.78L382.02-26.78Q385.51-26.78 388.35-25.26 391.2-23.73 392.56-21.14L392.56-21.14Q392.86-20.63 392.86-19.97L392.86-19.97Q392.86-18.97 392.14-18.25 391.42-17.53 390.41-17.53L390.41-17.53Q389.8-17.53 389.16-17.93 388.51-18.33 388.24-18.87L388.24-18.87Q387.44-20.39 385.82-21.14 384.21-21.9 381.99-21.9L381.99-21.9Q380.7-21.9 379.06-21.56 377.43-21.22 376.23-20.46 375.03-19.7 375.03-18.41L375.03-18.41Q375.03-17.46 376.02-16.91 377.01-16.36 378.46-16.06 379.92-15.77 381.38-15.64 382.85-15.5 383.77-15.41L383.77-15.41Q385.58-15.21 387.34-14.81 389.1-14.4 390.56-13.62 392.03-12.84 392.89-11.5 393.76-10.16 393.76-8.08L393.76-8.08Q393.76-5.13 392.05-3.25 390.34-1.37 387.68-0.46 385.02 0.44 382.11 0.44L382.11 0.44Q378.13 0.44 374.87-1.14 371.62-2.71 370.05-5.74L370.05-5.74Q369.76-6.32 369.76-6.88L369.76-6.88Q369.76-7.89 370.48-8.61 371.2-9.33 372.2-9.33L372.2-9.33Q372.84-9.33 373.48-8.92 374.13-8.52 374.4-7.96L374.4-7.96Q375.35-6.1 377.34-5.27 379.33-4.44 382.09-4.44L382.09-4.44Q383.55-4.44 385.13-4.77 386.7-5.1 387.79-5.91 388.88-6.71 388.88-8.11L388.88-8.11Q388.88-9.18 387.94-9.66 387-10.13 385.69-10.28 384.38-10.42 383.26-10.55L383.26-10.55Q381.11-10.77 378.82-11.12 376.52-11.47 374.56-12.26 372.59-13.04 371.37-14.5 370.15-15.97 370.15-18.41L370.15-18.41Q370.15-20.61 371.21-22.19 372.27-23.78 374.03-24.79 375.79-25.81 377.88-26.29 379.96-26.78 382.02-26.78ZM401.15-29.25L401.15-29.25Q400.03-29.25 399.32-29.94 398.61-30.64 398.59-31.67L398.59-31.67 398.54-33.52Q398.54-34.45 399.37-35.02 400.2-35.6 400.96-35.6L400.96-35.6Q401.98-35.6 402.68-34.89 403.38-34.18 403.4-33.18L403.4-33.18 403.42-31.71Q403.42-30.76 402.79-30 402.15-29.25 401.15-29.25ZM398.57-1.81L398.52-24.63Q398.52-25.56 399.3-26.15 400.08-26.73 400.81-26.73L400.81-26.73Q401.89-26.73 402.64-26.1 403.4-25.46 403.4-24.41L403.4-24.41 403.4-24.39 403.45-1.78Q403.45-0.81 402.73-0.12 402.01 0.56 401.01 0.56L401.01 0.56Q399.98 0.56 399.27-0.13 398.57-0.83 398.57-1.81L398.57-1.81ZM411.87-26.22L411.87-31.1Q411.87-32.1 412.58-32.82 413.29-33.54 414.31-33.54L414.31-33.54Q415.31-33.54 416.03-32.82 416.75-32.1 416.75-31.1L416.75-31.1 416.75-26.25 420.02-26.25Q420.98-26.25 421.66-25.56 422.34-24.88 422.34-23.93L422.34-23.93Q422.34-22.97 421.66-22.29 420.98-21.61 420.02-21.61L420.02-21.61 416.73-21.61 416.7-6.49 416.7-6.45Q416.7-5.25 416.97-4.8 417.24-4.35 418.07-4.35L418.07-4.35Q419.12-4.35 419.93-4.91L419.93-4.91Q420.22-5.1 420.63-5.26 421.05-5.42 421.44-5.42L421.44-5.42Q422.44-5.42 423.16-4.71 423.88-4 423.88-3L423.88-3Q423.88-1.81 422.9-1.07L422.9-1.07Q421.98-0.37 420.78 0.1 419.58 0.56 418.22 0.56L418.22 0.56Q415.14 0.56 413.48-1.33 411.82-3.22 411.82-6.05L411.82-6.05 411.82-6.27 411.84-21.58 408.7-21.58Q407.74-21.58 407.06-22.27 406.38-22.95 406.38-23.9L406.38-23.9Q406.38-24.85 407.06-25.54 407.74-26.22 408.7-26.22L408.7-26.22 411.87-26.22ZM427.52-26.88L427.52-26.88Q428.22-26.88 428.85-26.46 429.47-26.05 429.74-25.44L429.74-25.44 438.04-6.57 445.14-25.27Q445.41-25.93 446.03-26.37 446.66-26.81 447.41-26.81L447.41-26.81Q448.41-26.81 449.13-26.09 449.85-25.37 449.85-24.37L449.85-24.37Q449.85-23.85 449.66-23.41L449.66-23.41 440.68 0.02Q440.63 0.34 440.5 0.59 440.38 0.83 440.26 1.03L440.26 1.03 438.89 4.44Q438.38 5.71 437.67 7.14 436.96 8.57 435.72 9.84L435.72 9.84Q434.52 11.08 432.8 11.94 431.08 12.79 429.2 12.79L429.2 12.79Q428.18 12.79 427.47 12.05 426.76 11.3 426.76 10.3L426.76 10.3Q426.76 9.33 427.43 8.61 428.1 7.89 429.05 7.86L429.05 7.86Q431.2 7.71 432.37 6.19 433.55 4.66 434.38 2.59L434.38 2.59 435.55-0.39 425.29-23.39Q425.07-23.9 425.07-24.44L425.07-24.44Q425.07-25.44 425.79-26.16 426.52-26.88 427.52-26.88ZM478.73-26.73L478.73-26.73Q481.54-26.73 483.97-25.66 486.4-24.58 488.23-22.68 490.06-20.78 491.1-18.31 492.14-15.84 492.14-13.06L492.14-13.06Q492.14-10.33 491.09-7.87 490.04-5.42 488.19-3.55 486.35-1.68 483.92-0.61 481.49 0.46 478.73 0.46L478.73 0.46Q476 0.46 473.57-0.59 471.14-1.64 469.3-3.49 467.45-5.35 466.4-7.8 465.35-10.25 465.35-13.06L465.35-13.06Q465.35-15.84 466.4-18.31 467.45-20.78 469.3-22.67 471.14-24.56 473.56-25.65 475.97-26.73 478.73-26.73ZM470.28-13.01L470.28-13.01Q470.28-10.64 471.44-8.7 472.6-6.76 474.53-5.62 476.46-4.47 478.76-4.47L478.76-4.47Q481.1-4.47 483.02-5.65 484.93-6.84 486.07-8.79 487.2-10.74 487.2-13.06L487.2-13.06Q487.2-15.43 486.08-17.42 484.96-19.41 483.04-20.61 481.12-21.8 478.73-21.8L478.73-21.8Q476.31-21.8 474.41-20.59 472.51-19.38 471.4-17.4 470.28-15.41 470.28-13.01ZM494.18-23.97L494.18-23.97Q494.18-24.68 494.76-25.35 495.33-26.03 496.16-26.03L496.16-26.03 499.77-26.05 499.77-26.37Q499.85-30.49 501.63-32.84 503.41-35.18 507.42-35.11L507.42-35.11 510.1-35.06Q511.1-35.06 511.81-34.34 512.52-33.62 512.52-32.62L512.52-32.62Q512.52-31.62 511.81-30.93 511.1-30.25 510.08-30.25L510.08-30.25 507.34-30.64Q506.07-30.64 505.5-30.26 504.93-29.88 504.77-28.93 504.61-27.98 504.63-26.22L504.63-26.22 504.66-26 509.59-25.98Q510.57-25.98 511.24-25.32 511.91-24.66 511.91-23.73L511.91-23.73Q511.91-22.95 511.27-22.23 510.64-21.51 509.83-21.51L509.83-21.51 504.66-21.46 504.71-1.78 504.71-1.76Q504.71-0.78 503.99-0.11 503.27 0.56 502.26 0.56L502.26 0.56Q501.26 0.56 500.54-0.11 499.82-0.78 499.82-1.76L499.82-1.76 499.82-1.78 499.77-21.51 496.5-21.53Q495.53-21.53 494.85-22.22 494.18-22.9 494.18-23.97ZM543.49-35.47L543.49-35.47Q546.3-35.47 548.8-34.52 551.31-33.57 553.19-31.88 555.07-30.2 556.04-27.98L556.04-27.98Q556.26-27.49 556.26-26.98L556.26-26.98Q556.26-25.98 555.54-25.26 554.82-24.54 553.82-24.54L553.82-24.54Q553.16-24.54 552.5-24.96 551.84-25.39 551.58-26L551.58-26Q550.65-28.1 548.49-29.35 546.33-30.59 543.49-30.59L543.49-30.59Q542.1-30.59 540.55-30.25 539-29.91 537.64-29.21 536.27-28.52 535.41-27.47 534.56-26.42 534.56-25.02L534.56-25.02Q534.56-23.9 535.29-23.08 536.02-22.27 536.93-21.8L536.93-21.8Q539.05-20.75 541.63-20.34 544.2-19.92 546.84-19.53 549.48-19.14 551.75-18.16L551.75-18.16Q553.19-17.55 554.51-16.48 555.82-15.41 556.65-13.87 557.48-12.33 557.48-10.25L557.48-10.25Q557.48-7.57 556.19-5.54 554.9-3.52 552.8-2.17 550.7-0.83 548.24-0.16 545.79 0.51 543.45 0.51L543.45 0.51Q540.27 0.51 537.49-0.5 534.71-1.51 532.63-3.38 530.56-5.25 529.46-7.76L529.46-7.76Q529.24-8.25 529.24-8.74L529.24-8.74Q529.24-9.74 529.96-10.46 530.68-11.18 531.68-11.18L531.68-11.18Q532.36-11.18 533.02-10.75 533.68-10.33 533.92-9.69L533.92-9.69Q535-7.23 537.56-5.8 540.13-4.37 543.45-4.37L543.45-4.37Q545.52-4.37 547.62-4.99 549.72-5.62 551.15-6.92 552.58-8.23 552.58-10.25L552.58-10.25Q552.58-11.55 551.71-12.39 550.84-13.23 549.82-13.67L549.82-13.67Q547.5-14.67 544.86-15.05 542.23-15.43 539.61-15.86 537-16.28 534.73-17.43L534.73-17.43Q532.8-18.41 531.23-20.28 529.65-22.14 529.65-25.02L529.65-25.02Q529.65-27.56 530.88-29.5 532.12-31.45 534.16-32.78 536.19-34.11 538.64-34.79 541.08-35.47 543.49-35.47ZM574.52-26.73L574.52-26.73Q577.33-26.73 579.76-25.66 582.19-24.58 584.02-22.68 585.85-20.78 586.89-18.31 587.93-15.84 587.93-13.06L587.93-13.06Q587.93-10.33 586.88-7.87 585.83-5.42 583.98-3.55 582.14-1.68 579.71-0.61 577.28 0.46 574.52 0.46L574.52 0.46Q571.79 0.46 569.36-0.59 566.93-1.64 565.09-3.49 563.24-5.35 562.19-7.8 561.14-10.25 561.14-13.06L561.14-13.06Q561.14-15.84 562.19-18.31 563.24-20.78 565.09-22.67 566.93-24.56 569.35-25.65 571.76-26.73 574.52-26.73ZM566.08-13.01L566.08-13.01Q566.08-10.64 567.23-8.7 568.39-6.76 570.32-5.62 572.25-4.47 574.55-4.47L574.55-4.47Q576.89-4.47 578.81-5.65 580.72-6.84 581.86-8.79 582.99-10.74 582.99-13.06L582.99-13.06Q582.99-15.43 581.87-17.42 580.75-19.41 578.83-20.61 576.92-21.8 574.52-21.8L574.52-21.8Q572.11-21.8 570.2-20.59 568.3-19.38 567.19-17.4 566.08-15.41 566.08-13.01ZM589.97-23.97L589.97-23.97Q589.97-24.68 590.55-25.35 591.12-26.03 591.95-26.03L591.95-26.03 595.56-26.05 595.56-26.37Q595.64-30.49 597.42-32.84 599.2-35.18 603.21-35.11L603.21-35.11 605.89-35.06Q606.89-35.06 607.6-34.34 608.31-33.62 608.31-32.62L608.31-32.62Q608.31-31.62 607.6-30.93 606.89-30.25 605.87-30.25L605.87-30.25 603.13-30.64Q601.86-30.64 601.29-30.26 600.72-29.88 600.56-28.93 600.4-27.98 600.42-26.22L600.42-26.22 600.45-26 605.38-25.98Q606.36-25.98 607.03-25.32 607.7-24.66 607.7-23.73L607.7-23.73Q607.7-22.95 607.06-22.23 606.43-21.51 605.62-21.51L605.62-21.51 600.45-21.46 600.5-1.78 600.5-1.76Q600.5-0.78 599.78-0.11 599.06 0.56 598.06 0.56L598.06 0.56Q597.05 0.56 596.33-0.11 595.61-0.78 595.61-1.76L595.61-1.76 595.61-1.78 595.56-21.51 592.29-21.53Q591.32-21.53 590.65-22.22 589.97-22.9 589.97-23.97ZM613.87-29.25L613.87-29.25Q612.75-29.25 612.04-29.94 611.33-30.64 611.31-31.67L611.31-31.67 611.26-33.52Q611.26-34.45 612.09-35.02 612.92-35.6 613.68-35.6L613.68-35.6Q614.7-35.6 615.4-34.89 616.09-34.18 616.12-33.18L616.12-33.18 616.14-31.71Q616.14-30.76 615.51-30 614.87-29.25 613.87-29.25ZM611.29-1.81L611.24-24.63Q611.24-25.56 612.02-26.15 612.8-26.73 613.53-26.73L613.53-26.73Q614.61-26.73 615.36-26.1 616.12-25.46 616.12-24.41L616.12-24.41 616.12-24.39 616.17-1.78Q616.17-0.81 615.45-0.12 614.73 0.56 613.73 0.56L613.73 0.56Q612.7 0.56 611.99-0.13 611.29-0.83 611.29-1.81L611.29-1.81ZM633.69-26.86L633.69-26.86Q635.5-26.86 637.22-26.14 638.94-25.42 640.3-24.33 641.65-23.24 642.31-22.09L642.31-22.09 642.58-24.44Q642.58-25.44 643.17-26.16 643.75-26.88 644.75-26.88L644.75-26.88Q645.76-26.88 646.48-26.16 647.2-25.44 647.2-24.44L647.2-24.44 647.2-24.39 647.15-1.78Q647.15-0.78 646.43-0.06 645.71 0.66 644.71 0.66L644.71 0.66Q643.7 0.66 643.12-0.06 642.53-0.78 642.53-1.78L642.53-1.78 642.26-3.74Q640.99-1.56 638.55-0.5 636.11 0.56 633.65 0.56L633.65 0.56Q630.89 0.56 628.47-0.52 626.05-1.61 624.22-3.52 622.39-5.42 621.35-7.89 620.32-10.35 620.32-13.09L620.32-13.09Q620.32-15.8 621.33-18.27 622.34-20.75 624.16-22.69 625.98-24.63 628.41-25.74 630.84-26.86 633.69-26.86ZM642.12-13.13L642.12-13.13Q642.12-15.53 641.01-17.53 639.9-19.53 637.99-20.75 636.09-21.97 633.65-21.97L633.65-21.97Q631.25-21.97 629.32-20.75 627.4-19.53 626.27-17.52 625.15-15.5 625.15-13.16L625.15-13.16Q625.15-10.79 626.3-8.78 627.44-6.76 629.39-5.54 631.33-4.32 633.67-4.32L633.67-4.32Q636.01-4.32 637.93-5.54 639.85-6.76 640.98-8.78 642.12-10.79 642.12-13.13ZM668.19-16.46L668.19-16.46 686.81-16.46Q687.82-16.46 688.54-15.73 689.26-15.01 689.26-14.01L689.26-14.01Q689.26-13.01 688.54-12.29 687.82-11.57 686.81-11.57L686.81-11.57 668.19-11.57Q667.19-11.57 666.47-12.29 665.75-13.01 665.75-14.01L665.75-14.01Q665.75-15.01 666.47-15.73 667.19-16.46 668.19-16.46ZM709.71 0L709.71 0Q708.71 0 707.99-0.72 707.27-1.44 707.27-2.44L707.27-2.44 707.2-32.74Q707.17-32.96 707.17-33.18L707.17-33.18Q707.17-33.52 707.33-33.84 707.49-34.16 707.71-34.5L707.71-34.5Q708.29-35.45 709.39-35.45L709.39-35.45Q711.15-35.45 711.81-34.08L711.81-34.08 724.87-12.77 736.96-34.11Q737.69-35.33 738.93-35.33L738.93-35.33Q739.98-35.33 740.76-34.64 741.55-33.96 741.55-32.89L741.55-32.89 741.55-2.34Q741.55-1.34 740.83-0.62 740.11 0.1 739.1 0.1L739.1 0.1Q738.1 0.1 737.38-0.62 736.66-1.34 736.66-2.34L736.66-2.34 736.66-24.17 727.07-6.74Q726.8-6.3 726.24-5.9 725.68-5.49 725.02-5.49L725.02-5.49Q723.6-5.49 722.84-6.67L722.84-6.67 712.08-24.27 712.15-2.47 712.15-2.44Q712.15-1.44 711.43-0.72 710.71 0 709.71 0ZM749.33 0.1L749.33 0.1Q747.67 0.1 746.44-1.07 745.21-2.25 745.21-3.93L745.21-3.93Q745.21-5.62 746.44-6.77 747.67-7.93 749.33-7.93L749.33-7.93Q750.99-7.93 752.24-6.77 753.48-5.62 753.48-3.93L753.48-3.93Q753.48-2.25 752.24-1.07 750.99 0.1 749.33 0.1ZM756.75-2.86L770.15-34.06Q770.42-34.67 771.07-35.1 771.72-35.52 772.4-35.52L772.4-35.52Q773.06-35.52 773.73-35.1 774.4-34.67 774.65-34.06L774.65-34.06 788.07-2.91Q788.29-2.42 788.29-1.9L788.29-1.9Q788.29-0.9 787.57-0.18 786.85 0.54 785.85 0.54L785.85 0.54Q785.17 0.54 784.51 0.1 783.85-0.34 783.58-0.95L783.58-0.95 779.41-10.64 765.49-10.84 761.22-0.93Q760.97-0.32 760.32 0.13 759.66 0.59 758.97 0.59L758.97 0.59Q757.97 0.59 757.25-0.13 756.53-0.85 756.53-1.86L756.53-1.86Q756.53-2.37 756.75-2.86L756.75-2.86ZM777.28-15.58L772.4-26.9 767.59-15.7 777.28-15.58ZM817.83-13.09L817.83-13.09Q817.83-10.33 816.82-7.71 815.81-5.1 813.78-3.1L813.78-3.1Q812-1.37 809.68-0.42 807.36 0.54 804.87 0.54L804.87 0.54Q802.33 0.54 800.36-0.54 798.4-1.61 796.81-3.44L796.81-3.44 796.81 6.84Q796.81 7.84 796.09 8.56 795.37 9.28 794.37 9.28L794.37 9.28Q793.37 9.28 792.65 8.56 791.93 7.84 791.93 6.84L791.93 6.84 791.93-24.34Q791.93-25.34 792.65-26.06 793.37-26.78 794.37-26.78L794.37-26.78Q795.37-26.78 795.87-26.06 796.37-25.34 796.52-24.34L796.52-24.34 796.81-22.36Q798.2-24.37 800.49-25.51 802.77-26.66 805.04-26.66L805.04-26.66Q807.8-26.66 810.13-25.56 812.46-24.46 814.19-22.57 815.93-20.68 816.88-18.24 817.83-15.8 817.83-13.09ZM805.09-21.78L805.09-21.78Q803.5-21.78 801.94-21.08 800.38-20.39 799.28-19.17L799.28-19.17Q798.18-17.97 797.58-16.32 796.98-14.67 796.98-12.96L796.98-12.96Q796.98-10.62 798.01-8.64 799.03-6.67 800.84-5.47 802.65-4.27 804.97-4.27L804.97-4.27Q807.29-4.27 809.09-5.53 810.9-6.79 811.94-8.8 812.97-10.82 812.97-13.09L812.97-13.09Q812.97-15.38 811.95-17.36 810.92-19.34 809.14-20.56 807.36-21.78 805.09-21.78ZM833.65-26.73L833.65-26.73Q836.46-26.73 838.89-25.66 841.32-24.58 843.15-22.68 844.98-20.78 846.02-18.31 847.05-15.84 847.05-13.06L847.05-13.06Q847.05-10.33 846-7.87 844.95-5.42 843.11-3.55 841.27-1.68 838.84-0.61 836.41 0.46 833.65 0.46L833.65 0.46Q830.92 0.46 828.49-0.59 826.06-1.64 824.21-3.49 822.37-5.35 821.32-7.8 820.27-10.25 820.27-13.06L820.27-13.06Q820.27-15.84 821.32-18.31 822.37-20.78 824.21-22.67 826.06-24.56 828.47-25.65 830.89-26.73 833.65-26.73ZM825.2-13.01L825.2-13.01Q825.2-10.64 826.36-8.7 827.52-6.76 829.45-5.62 831.38-4.47 833.67-4.47L833.67-4.47Q836.02-4.47 837.93-5.65 839.85-6.84 840.99-8.79 842.12-10.74 842.12-13.06L842.12-13.06Q842.12-15.43 841-17.42 839.88-19.41 837.96-20.61 836.04-21.8 833.65-21.8L833.65-21.8Q831.23-21.8 829.33-20.59 827.42-19.38 826.31-17.4 825.2-15.41 825.2-13.01ZM862.94-26.78L862.94-26.78Q866.44-26.78 869.28-25.26 872.12-23.73 873.49-21.14L873.49-21.14Q873.78-20.63 873.78-19.97L873.78-19.97Q873.78-18.97 873.06-18.25 872.34-17.53 871.34-17.53L871.34-17.53Q870.73-17.53 870.09-17.93 869.44-18.33 869.17-18.87L869.17-18.87Q868.36-20.39 866.75-21.14 865.14-21.9 862.92-21.9L862.92-21.9Q861.63-21.9 859.99-21.56 858.35-21.22 857.16-20.46 855.96-19.7 855.96-18.41L855.96-18.41Q855.96-17.46 856.95-16.91 857.94-16.36 859.39-16.06 860.84-15.77 862.31-15.64 863.77-15.5 864.7-15.41L864.7-15.41Q866.51-15.21 868.27-14.81 870.02-14.4 871.49-13.62 872.95-12.84 873.82-11.5 874.69-10.16 874.69-8.08L874.69-8.08Q874.69-5.13 872.98-3.25 871.27-1.37 868.61-0.46 865.95 0.44 863.04 0.44L863.04 0.44Q859.06 0.44 855.8-1.14 852.54-2.71 850.98-5.74L850.98-5.74Q850.69-6.32 850.69-6.88L850.69-6.88Q850.69-7.89 851.41-8.61 852.13-9.33 853.13-9.33L853.13-9.33Q853.76-9.33 854.41-8.92 855.06-8.52 855.33-7.96L855.33-7.96Q856.28-6.1 858.27-5.27 860.26-4.44 863.02-4.44L863.02-4.44Q864.48-4.44 866.06-4.77 867.63-5.1 868.72-5.91 869.8-6.71 869.8-8.11L869.8-8.11Q869.8-9.18 868.87-9.66 867.93-10.13 866.62-10.28 865.31-10.42 864.19-10.55L864.19-10.55Q862.04-10.77 859.75-11.12 857.45-11.47 855.49-12.26 853.52-13.04 852.3-14.5 851.08-15.97 851.08-18.41L851.08-18.41Q851.08-20.61 852.14-22.19 853.2-23.78 854.96-24.79 856.72-25.81 858.81-26.29 860.89-26.78 862.94-26.78ZM883.23-26.22L883.23-31.1Q883.23-32.1 883.94-32.82 884.65-33.54 885.67-33.54L885.67-33.54Q886.67-33.54 887.39-32.82 888.11-32.1 888.11-31.1L888.11-31.1 888.11-26.25 891.38-26.25Q892.34-26.25 893.02-25.56 893.7-24.88 893.7-23.93L893.7-23.93Q893.7-22.97 893.02-22.29 892.34-21.61 891.38-21.61L891.38-21.61 888.09-21.61 888.06-6.49 888.06-6.45Q888.06-5.25 888.33-4.8 888.6-4.35 889.43-4.35L889.43-4.35Q890.48-4.35 891.29-4.91L891.29-4.91Q891.58-5.1 891.99-5.26 892.41-5.42 892.8-5.42L892.8-5.42Q893.8-5.42 894.52-4.71 895.24-4 895.24-3L895.24-3Q895.24-1.81 894.27-1.07L894.27-1.07Q893.34-0.37 892.14 0.1 890.95 0.56 889.58 0.56L889.58 0.56Q886.5 0.56 884.84-1.33 883.18-3.22 883.18-6.05L883.18-6.05 883.18-6.27 883.21-21.58 880.06-21.58Q879.1-21.58 878.42-22.27 877.74-22.95 877.74-23.9L877.74-23.9Q877.74-24.85 878.42-25.54 879.1-26.22 880.06-26.22L880.06-26.22 883.23-26.22ZM910.42-26.73L910.42-26.73Q913.23-26.73 915.66-25.66 918.09-24.58 919.92-22.68 921.75-20.78 922.79-18.31 923.83-15.84 923.83-13.06L923.83-13.06Q923.83-10.33 922.78-7.87 921.73-5.42 919.89-3.55 918.04-1.68 915.61-0.61 913.18 0.46 910.42 0.46L910.42 0.46Q907.69 0.46 905.26-0.59 902.83-1.64 900.99-3.49 899.15-5.35 898.1-7.8 897.05-10.25 897.05-13.06L897.05-13.06Q897.05-15.84 898.1-18.31 899.15-20.78 900.99-22.67 902.83-24.56 905.25-25.65 907.67-26.73 910.42-26.73ZM901.98-13.01L901.98-13.01Q901.98-10.64 903.14-8.7 904.3-6.76 906.23-5.62 908.15-4.47 910.45-4.47L910.45-4.47Q912.79-4.47 914.71-5.65 916.63-6.84 917.76-8.79 918.9-10.74 918.9-13.06L918.9-13.06Q918.9-15.43 917.77-17.42 916.65-19.41 914.73-20.61 912.82-21.8 910.42-21.8L910.42-21.8Q908.01-21.8 906.1-20.59 904.2-19.38 903.09-17.4 901.98-15.41 901.98-13.01ZM929.66-35.62L929.66-35.62Q930.83-35.62 931.54-34.85 932.25-34.08 932.22-33.18L932.22-33.18 932.22-1.73Q932.22-0.76 931.46-0.16 930.69 0.44 929.93 0.44L929.93 0.44Q928.88 0.44 928.11-0.24 927.34-0.93 927.34-2L927.34-2 927.34-33.18Q927.34-34.11 928.01-34.86 928.68-35.62 929.66-35.62ZM949.14-26.73L949.14-26.73Q951.95-26.73 954.38-25.66 956.81-24.58 958.64-22.68 960.47-20.78 961.51-18.31 962.54-15.84 962.54-13.06L962.54-13.06Q962.54-10.33 961.49-7.87 960.44-5.42 958.6-3.55 956.76-1.68 954.33-0.61 951.9 0.46 949.14 0.46L949.14 0.46Q946.41 0.46 943.98-0.59 941.55-1.64 939.7-3.49 937.86-5.35 936.81-7.8 935.76-10.25 935.76-13.06L935.76-13.06Q935.76-15.84 936.81-18.31 937.86-20.78 939.7-22.67 941.55-24.56 943.96-25.65 946.38-26.73 949.14-26.73ZM940.69-13.01L940.69-13.01Q940.69-10.64 941.85-8.7 943.01-6.76 944.94-5.62 946.87-4.47 949.17-4.47L949.17-4.47Q951.51-4.47 953.43-5.65 955.34-6.84 956.48-8.79 957.61-10.74 957.61-13.06L957.61-13.06Q957.61-15.43 956.49-17.42 955.37-19.41 953.45-20.61 951.53-21.8 949.14-21.8L949.14-21.8Q946.72-21.8 944.82-20.59 942.92-19.38 941.8-17.4 940.69-15.41 940.69-13.01ZM985.22-26.73L985.22-26.73Q986.1-26.73 986.82-26.03 987.54-25.32 987.54-24.46L987.54-24.46Q987.54-23.71 987.3-23.22L987.3-23.22 976.99-0.93Q976.34 0.46 974.75 0.46L974.75 0.46Q973.11 0.46 972.55-1.03L972.55-1.03 963.32-23.32Q963.13-23.73 963.13-24.46L963.13-24.46Q963.13-25.24 963.8-25.99 964.47-26.73 965.3-26.73L965.3-26.73Q967.2-26.73 967.84-25.22L967.84-25.22 974.94-7.93 982.88-25.32Q983.54-26.73 985.22-26.73Z" opacity="1" transform="matrix(1,0,0,1,0,0)" fill="#6c7383" class="slogan-text-1" data-fill-palette-color="secondary" id="text-1"/></svg></g></svg></g></svg></g></svg></g><g transform="matrix(1,0,0,1,417.39358852407645,9.430973361768352)"><svg viewBox="0 0 61.631611848098046 41.508296770585574" height="41.508296770585574" width="61.631611848098046"><g><svg xmlns="http://www.w3.org/2000/svg" xmlns:xlink="http://www.w3.org/1999/xlink" version="1.1" x="8" y="0" viewBox="0 0 99.9990005493164 90.96299743652344" enable-background="new 0 0 100 90.963" xml:space="preserve" height="41.508296770585574" width="45.631611848098046" class="icon-icon-0" data-fill-palette-color="accent" id="icon-0"><path d="M8.984 21.367V61.705H2.988A3 3 0 0 1 0 58.711V6.732L3.861 1.589C4.518 0.716 5.951 0 7.044 0H26.868C27.962 0 29.394 0.716 30.052 1.589L33.912 6.732H79.05A2.99 2.99 0 0 1 82.031 9.714V21.367H42.897L39.037 16.224C38.379 15.351 36.947 14.636 35.853 14.636H16.029C14.935 14.636 13.503 15.352 12.845 16.224z" fill="#4b49ac" data-fill-palette-color="accent"/><path d="M97.012 35.99H51.882L48.014 30.86C47.357 29.988 45.924 29.272 44.837 29.272H25.013C23.919 29.272 22.487 29.988 21.829 30.86L17.968 35.99V87.982A2.987 2.987 0 0 0 20.943 90.963H97.011A2.99 2.99 0 0 0 99.999 87.982V38.984A2.99 2.99 0 0 0 97.012 35.99" fill="#4b49ac" data-fill-palette-color="accent"/></svg></g></svg></g></svg></g><defs/></svg></g></svg>